HIERARCHY
ROOT SpineBase
{
  OFFSET 0.000000 0.000000 0.000000
  CHANNELS 6 Xposition Yposition Zposition Zrotation Xrotation Yrotation
  JOINT SpineMid
  {
    OFFSET 0.000000 28.595901 0.000000
    CHANNELS 3 Zrotation Xrotation Yrotation
    JOINT SpineShoulder
    {
      OFFSET 0.063277 21.309154 -0.568383
      CHANNELS 3 Zrotation Xrotation Yrotation
      JOINT Neck
      {
        OFFSET 0.046353 7.068992 -0.441070
        CHANNELS 3 Zrotation Xrotation Yrotation
        JOINT Head
        {
          OFFSET 4.967117 13.361509 -0.653160
          CHANNELS 3 Zrotation Xrotation Yrotation
          End Site
          {
            OFFSET 0 0 0
          }
        }
      }
      JOINT ShoulderLeft
      {
        OFFSET -11.205059 -2.440772 -11.030399
        CHANNELS 3 Zrotation Xrotation Yrotation
        JOINT ElbowLeft
        {
          OFFSET -2.405380 -22.021172 -5.133307
          CHANNELS 3 Zrotation Xrotation Yrotation
          JOINT WristLeft
          {
            OFFSET 7.670313 -19.068164 -2.924881
            CHANNELS 3 Zrotation Xrotation Yrotation
            JOINT HandLeft
            {
              OFFSET 3.143483 -7.040379 0.129846
              CHANNELS 3 Zrotation Xrotation Yrotation
              JOINT HandTipLeft
              {
                OFFSET 2.618488 -6.236193 0.258681
                CHANNELS 3 Zrotation Xrotation Yrotation
                End Site
                {
                  OFFSET 0 0 0
                }
              }
              JOINT ThumbLeft
              {
                OFFSET 2.240201 2.164794 0.585777
                CHANNELS 3 Zrotation Xrotation Yrotation
                End Site
                {
                  OFFSET 0 0 0
                }
              }
            }
          }
        }
      }
      JOINT ShoulderRight
      {
        OFFSET 14.084200 -4.816572 11.019997
        CHANNELS 3 Zrotation Xrotation Yrotation
        JOINT ElbowRight
        {
          OFFSET -0.243949 -26.768826 1.639120
          CHANNELS 3 Zrotation Xrotation Yrotation
          JOINT WristRight
          {
            OFFSET 0.795653 -18.890088 -7.407910
            CHANNELS 3 Zrotation Xrotation Yrotation
            JOINT HandRight
            {
              OFFSET -0.668439 -5.922561 -2.037122
              CHANNELS 3 Zrotation Xrotation Yrotation
              JOINT HandTipRight
              {
                OFFSET 0.410681 -4.385231 -1.551800
                CHANNELS 3 Zrotation Xrotation Yrotation
                End Site
                {
                  OFFSET 0 0 0
                }
              }
              JOINT ThumbRight
              {
                OFFSET -2.752936 0.670605 -2.897194
                CHANNELS 3 Zrotation Xrotation Yrotation
                End Site
                {
                  OFFSET 0 0 0
                }
              }
            }
          }
        }
      }
    }
  }
  JOINT HipLeft
  {
    OFFSET -5.302060 1.285354 -6.277679
    CHANNELS 3 Zrotation Xrotation Yrotation
    JOINT KneeLeft
    {
      OFFSET -7.208295 -29.643427 0.330490
      CHANNELS 3 Zrotation Xrotation Yrotation
      JOINT AnkleLeft
      {
        OFFSET -4.864393 -32.754130 4.178470
        CHANNELS 3 Zrotation Xrotation Yrotation
        JOINT FootLeft
        {
          OFFSET 7.987492 -2.730090 -12.347557
          CHANNELS 3 Zrotation Xrotation Yrotation
          End Site
          {
            OFFSET 0 0 0
          }
        }
      }
    }
  }
  JOINT HipRight
  {
    OFFSET 5.703773 0.170493 0.961083
    CHANNELS 3 Zrotation Xrotation Yrotation
    JOINT KneeRight
    {
      OFFSET -3.301946 -27.267732 4.574914
      CHANNELS 3 Zrotation Xrotation Yrotation
      JOINT AnkleRight
      {
        OFFSET -8.094118 -33.408592 4.835439
        CHANNELS 3 Zrotation Xrotation Yrotation
        JOINT FootRight
        {
          OFFSET 1.879263 -8.234973 -3.618489
          CHANNELS 3 Zrotation Xrotation Yrotation
          End Site
          {
            OFFSET 0 0 0
          }
        }
      }
    }
  }
}
MOTION
Frames: 9
Frame Time: 0.033333
-26.395533 73.100751 340.789438 -0.000000 0.000000 -33.333740 0.000000 0.000000 33.333740 -0.000000 0.000000 0.000000 -0.000000 0.000000 0.000000 0.000000 0.000000 0.000000 -0.000000 0.000000 0.000000 -0.000000 0.000000 0.000000 -0.000000 0.000000 0.000000 -0.000000 0.000000 0.000000 0.000000 0.000000 0.000000 0.000000 0.000000 0.000000 -0.000000 0.000000 0.000000 -0.000000 0.000000 0.000000 -0.000000 0.000000 0.000000 -0.000000 0.000000 0.000000 0.000000 0.000000 0.000000 0.000000 0.000000 0.000000 0.000000 0.000000 33.333740 -0.000000 0.000000 0.000000 -0.000000 0.000000 0.000000 0.000000 0.000000 0.000000 0.000000 0.000000 33.333740 -0.000000 0.000000 0.000000 -0.000000 0.000000 0.000000 0.000000 0.000000 0.000000
-26.172415 73.133789 340.829317 0.215147 0.027356 -35.313414 -0.159748 -0.146688 35.313158 -0.000000 0.000000 0.000000 -0.000000 0.000000 0.000000 0.000000 0.000000 0.000000 -0.000000 0.000000 0.000000 -2.843523 -0.922172 0.042894 -0.785258 0.613007 -0.248352 2.332582 2.310211 1.015249 0.000000 0.000000 0.000000 0.000000 0.000000 0.000000 0.327836 -0.962193 0.031580 -0.327352 0.962358 -0.026078 -0.000000 0.000000 0.000000 2.998021 -1.548465 -1.168334 0.000000 0.000000 0.000000 0.000000 0.000000 0.000000 -0.159748 -0.146688 35.313158 -0.000000 0.000000 0.000000 -2.310268 -4.080040 -2.018251 0.000000 0.000000 0.000000 -0.159748 -0.146688 35.313158 -0.000000 0.000000 0.000000 1.010099 -0.161591 -0.478636 0.000000 0.000000 0.000000
-25.991631 73.162071 340.868011 0.391017 0.040919 -36.982580 -0.287738 -0.267910 36.981768 -0.000000 0.000000 0.000000 -0.206684 0.828636 -0.316557 0.000000 0.000000 0.000000 0.609727 -0.587419 -0.074976 -5.838399 -1.160869 0.159558 -1.527033 1.111162 -0.432276 4.325443 3.963704 1.776787 0.000000 0.000000 0.000000 0.000000 0.000000 0.000000 0.624636 -1.667521 0.062484 -1.040648 2.345811 0.162247 -0.767346 -0.349522 0.169628 6.456609 -3.398159 -2.362706 0.000000 0.000000 0.000000 0.000000 0.000000 0.000000 -1.514641 -0.699570 36.862274 1.157140 -1.314931 0.238349 -4.965329 -7.535908 -4.442220 0.000000 0.000000 0.000000 -0.287738 -0.267910 36.981768 -0.772773 0.345091 -0.192899 2.499798 -0.453554 -0.573083 0.000000 0.000000 0.000000
-25.853180 73.185596 340.905519 0.527756 0.040713 -38.332773 -0.388738 -0.359262 38.331366 -0.000000 0.000000 0.000000 -0.287114 1.078827 -0.412200 0.000000 0.000000 0.000000 0.756686 -0.844464 -0.078765 -7.888549 -1.608307 0.158350 -2.197460 1.474127 -0.574323 5.939820 4.988884 2.266788 0.000000 0.000000 0.000000 0.000000 0.000000 0.000000 0.889827 -2.114987 0.090094 -1.392976 3.064530 0.203267 -1.315674 0.243597 0.245836 8.697523 -5.667578 -2.940354 0.000000 0.000000 0.000000 0.000000 0.000000 0.000000 -2.050927 -0.969254 38.159614 1.580683 -1.787359 0.328681 -8.063139 -11.705783 -7.097702 0.000000 0.000000 0.000000 -0.388738 -0.359262 38.331366 -0.991928 0.500777 -0.260182 3.130912 -0.343672 -0.617978 0.000000 0.000000 0.000000
-25.757063 73.204364 340.941840 0.625468 0.026747 -39.359413 -0.466648 -0.417336 39.357567 -0.000000 0.000000 0.000000 -0.353001 1.218991 -0.466381 0.000000 0.000000 0.000000 0.797834 -1.074935 -0.061261 -9.342921 -1.955169 0.111405 -2.748095 1.686857 -0.698156 7.127389 5.406431 2.472192 0.000000 0.000000 0.000000 0.000000 0.000000 0.000000 1.122948 -2.304188 0.112220 -1.641918 3.490679 0.213339 -1.946251 1.341544 0.316513 10.322941 -8.272799 -3.121517 0.000000 0.000000 0.000000 0.000000 0.000000 0.000000 -2.450667 -1.158001 39.142155 1.896805 -2.140151 0.399447 -11.425139 -15.797077 -9.926581 0.000000 0.000000 0.000000 -0.466648 -0.417336 39.357567 -1.108359 0.648456 -0.310785 3.347829 -0.009404 -0.500930 0.000000 0.000000 0.000000
-25.703279 73.218376 340.976975 0.684213 -0.000986 -40.060614 -0.524317 -0.439597 40.058608 -0.000000 0.000000 0.000000 -0.404608 1.248794 -0.479248 0.000000 0.000000 0.000000 0.734313 -1.277807 -0.023484 -10.209497 -2.199894 0.023852 -3.102684 1.737225 -0.827079 7.819707 5.225984 2.384077 0.000000 0.000000 0.000000 0.000000 0.000000 0.000000 1.323657 -2.235023 0.127108 -1.789969 3.629873 0.190872 -2.640828 2.910949 0.385376 11.365586 -11.176290 -2.948731 0.000000 0.000000 0.000000 0.000000 0.000000 0.000000 -2.720040 -1.251306 39.810228 2.103323 -2.375269 0.450349 -14.818504 -19.514965 -12.724496 0.000000 0.000000 0.000000 -0.524317 -0.439597 40.058608 -1.124393 0.790295 -0.345986 3.148175 0.543066 -0.220163 0.000000 0.000000 0.000000
-25.594907 73.255449 340.993682 0.853159 -0.055001 -40.487984 -0.684590 -0.512107 40.485334 -0.000000 0.000000 0.000000 -0.343425 1.393272 -0.530305 0.000000 0.000000 0.000000 0.283224 -1.245046 0.073263 -10.106263 -2.782568 -0.324417 -1.412069 2.322478 -0.608415 6.173185 2.383339 1.051165 0.000000 0.000000 0.000000 0.000000 0.000000 0.000000 1.373688 -1.963390 0.125435 -1.461335 3.280387 0.017138 -4.854057 5.447420 1.004990 11.900981 -13.971398 -2.530970 0.000000 0.000000 0.000000 0.000000 0.000000 0.000000 -3.373028 -1.252949 40.130159 2.489727 -3.058925 0.611465 -22.827356 -26.717212 -18.962370 0.000000 0.000000 0.000000 -0.684590 -0.512107 40.485334 -1.049992 0.878029 -0.356264 1.841274 2.430791 0.753996 0.000000 0.000000 0.000000
-25.519061 73.350053 340.891279 0.970547 0.053781 -41.134648 -0.695640 -0.678941 41.130071 -0.000000 0.000000 0.000000 -0.074085 1.764513 -0.658818 0.000000 0.000000 0.000000 0.130839 -1.264273 0.109341 -9.791062 -2.856854 -0.434615 -0.389332 1.840184 -0.890165 3.780134 1.162310 0.455004 0.000000 0.000000 0.000000 0.000000 0.000000 0.000000 1.034608 -1.279809 0.086521 -1.032932 1.281162 -0.063416 -5.467754 10.831923 1.131681 12.301309 -20.297955 -1.526883 0.000000 0.000000 0.000000 0.000000 0.000000 0.000000 -3.402370 -1.697988 40.799295 2.711274 -2.964051 0.587875 -27.851854 -30.400153 -22.980397 0.000000 0.000000 0.000000 -0.695640 -0.678941 41.130071 -0.851202 0.971559 -0.351174 0.279751 3.864908 1.701168 0.000000 0.000000 0.000000
-25.752032 73.319118 340.918080 0.677553 0.013299 -40.347650 -0.507784 -0.448793 40.345583 -0.000000 0.000000 0.000000 -0.180464 1.118921 -0.422982 0.000000 0.000000 0.000000 -0.033600 -1.618188 0.184727 -9.139069 -2.496172 -0.527237 0.312767 0.473954 -1.571883 3.978804 1.334967 0.530239 0.000000 0.000000 0.000000 0.000000 0.000000 0.000000 1.240800 -0.573489 0.087398 -1.239986 0.575247 -0.074963 -5.950278 12.673070 1.219870 12.324935 -24.167298 -1.140391 0.000000 0.000000 0.000000 0.000000 0.000000 0.000000 -2.564211 -1.287760 40.123615 2.100430 -2.196616 0.425098 -27.934358 -30.901769 -22.859316 0.000000 0.000000 0.000000 -0.507784 -0.448793 40.345583 -0.612376 1.041803 -0.335484 -1.585828 4.985575 2.710191 0.000000 0.000000 0.000000
